<svg width="52" height="52" viewBox="0 0 52 52" fill="none" xmlns="http://www.w3.org/2000/svg">
<rect width="52" height="52" rx="26" fill="#FFD11A"/>
<path fill-rule="evenodd" clip-rule="evenodd" d="M22.25 17.75L33.5 17.75C33.6989 17.75 33.8897 17.829 34.0303 17.9697C34.171 18.1103 34.25 18.3011 34.25 18.5V29.75C34.25 30.1642 33.9142 30.5 33.5 30.5C33.0858 30.5 32.75 30.1642 32.75 29.75V20.3107L19.0303 34.0303C18.7374 34.3232 18.2626 34.3232 17.9697 34.0303C17.6768 33.7374 17.6768 33.2626 17.9697 32.9697L31.6893 19.25L22.25 19.25C21.8358 19.25 21.5 18.9142 21.5 18.5C21.5 18.0858 21.8358 17.75 22.25 17.75Z" fill="#141414"/>
</svg>
