<svg width="50" height="50" viewBox="0 0 50 50" fill="none" xmlns="http://www.w3.org/2000/svg">
<path d="M33.332 50V41.6666C37.9431 41.6666 41.6654 37.9444 41.6654 33.3333H49.9987C49.9987 42.5555 42.5265 50 33.332 50Z" fill="#FFD11A"/>
<path d="M33.3327 50V41.6666C28.7216 41.6666 24.9993 37.9444 24.9993 33.3333H16.666C16.666 42.5555 24.1382 50 33.3327 50Z" fill="#FFD11A"/>
<path d="M0 33.3334H8.33333C8.33333 37.9445 12.0556 41.6667 16.6667 41.6667V50C7.47222 50 0 42.5556 0 33.3334Z" fill="#FFD11A"/>
<path d="M0 33.3334H8.33333C8.33333 28.7222 12.0556 25 16.6667 25V16.6667C7.47222 16.6667 0 24.1389 0 33.3334Z" fill="#FFD11A"/>
<path d="M16.6667 0V8.33333C12.0556 8.33333 8.33333 12.0556 8.33333 16.6667H0C0 7.47222 7.47222 0 16.6667 0Z" fill="#FFD11A"/>
<path d="M16.666 0V8.33333C21.2771 8.33333 24.9993 12.0556 24.9993 16.6667H33.3327C33.3327 7.47222 25.8605 0 16.666 0Z" fill="#FFD11A"/>
<path d="M50.0007 16.6667H41.6673C41.6673 12.0556 37.9451 8.33333 33.334 8.33333V0C42.5284 0 50.0007 7.47222 50.0007 16.6667Z" fill="#FFD11A"/>
<path d="M50.0007 16.6667H41.6673C41.6673 21.2778 37.9451 25 33.334 25V33.3334C42.5284 33.3334 50.0007 25.8889 50.0007 16.6667Z" fill="#FFD11A"/>
</svg>
